<svg width="25" height="26" viewBox="0 0 25 26" fill="none" xmlns="http://www.w3.org/2000/svg">
<path opacity="0.4" d="M16.4317 2.94727H8.01509C4.35918 2.94727 2.17969 5.12675 2.17969 8.78267V17.1893C2.17969 20.8552 4.35918 23.0347 8.01509 23.0347H16.4217C20.0776 23.0347 22.2571 20.8552 22.2571 17.1993V8.78267C22.2671 5.12675 20.0877 2.94727 16.4317 2.94727Z" fill="#888888"/>
<path d="M14.493 12.9909L12.9764 12.4586V9.0538H13.338C14.1515 9.0538 14.8144 9.7669 14.8144 10.6407C14.8144 11.0525 15.1559 11.394 15.5677 11.394C15.9795 11.394 16.321 11.0525 16.321 10.6407C16.321 8.93327 14.9851 7.54724 13.338 7.54724H12.9764V6.96471C12.9764 6.55291 12.6349 6.21143 12.2231 6.21143C11.8113 6.21143 11.4698 6.55291 11.4698 6.96471V7.54724H10.817C9.33053 7.54724 8.11523 8.80271 8.11523 10.3394C8.11523 12.1372 9.15978 12.7097 9.95324 12.9909L11.4698 13.5233V16.918H11.1083C10.2947 16.918 9.63184 16.2049 9.63184 15.3311C9.63184 14.9193 9.29035 14.5778 8.87856 14.5778C8.46676 14.5778 8.12528 14.9193 8.12528 15.3311C8.12528 17.0386 9.46109 18.4246 11.1083 18.4246H11.4698V19.0172C11.4698 19.429 11.8113 19.7705 12.2231 19.7705C12.6349 19.7705 12.9764 19.429 12.9764 19.0172V18.4346H13.6292C15.1157 18.4346 16.331 17.1792 16.331 15.6425C16.321 13.8346 15.2764 13.2621 14.493 12.9909ZM10.4554 11.5748C9.94319 11.394 9.63184 11.2232 9.63184 10.3494C9.63184 9.63634 10.1642 9.06384 10.827 9.06384H11.4799V11.9363L10.4554 11.5748ZM13.6292 16.9281H12.9764V14.0556L13.9908 14.4071C14.503 14.5879 14.8144 14.7586 14.8144 15.6324C14.8144 16.3455 14.2821 16.9281 13.6292 16.9281Z" fill="#888888"/>
</svg>
