<svg width="25" height="26" viewBox="0 0 25 26" fill="none" xmlns="http://www.w3.org/2000/svg">
<path d="M20.1275 7.80658L14.3423 3.75896C12.7654 2.65415 10.3449 2.71441 8.82827 3.88953L3.79636 7.81662C2.79199 8.60003 1.99854 10.207 1.99854 11.4725V18.4027C1.99854 20.9639 4.07759 23.053 6.63874 23.053H17.4659C20.027 23.053 22.1061 20.9739 22.1061 18.4128V11.6031C22.1061 10.2472 21.2323 8.57995 20.1275 7.80658Z" fill="#FF00E6"/>
<path d="M12.0526 19.7887C11.6408 19.7887 11.2993 19.4472 11.2993 19.0354V16.0223C11.2993 15.6105 11.6408 15.269 12.0526 15.269C12.4644 15.269 12.8059 15.6105 12.8059 16.0223V19.0354C12.8059 19.4472 12.4644 19.7887 12.0526 19.7887Z" fill="#032E32"/>
</svg>
