<svg width="46" height="46" viewBox="0 0 46 46" fill="none" xmlns="http://www.w3.org/2000/svg">
<path d="M33.1395 7.93495L33.0053 15.1991C32.9861 16.1958 33.6187 17.5183 34.4237 18.1124L39.177 21.7158C42.2245 24.0158 41.7262 26.8333 38.0845 27.9833L31.8937 29.9191C30.8587 30.2449 29.7662 31.3758 29.4979 32.4299L28.022 38.0649C26.8528 42.5116 23.9395 42.9524 21.5245 39.0424L18.1511 33.58C17.5378 32.5833 16.0811 31.8358 14.9311 31.8933L8.52954 32.2191C3.9487 32.4491 2.64535 29.8041 5.63535 26.3158L9.43031 21.9074C10.1395 21.0833 10.4653 19.55 10.1395 18.515L8.20373 12.3241C7.0729 8.68243 9.10454 6.66996 12.727 7.85829L18.3812 9.71746C19.3396 10.0241 20.777 9.81328 21.582 9.21911L27.4854 4.96411C30.6671 2.66411 33.2161 4.00578 33.1395 7.93495Z" fill="#FFF500"/>
<path opacity="0.4" d="M41.093 39.2343L35.2855 33.4268C34.7296 32.8709 33.8096 32.8709 33.2538 33.4268C32.698 33.9826 32.698 34.9026 33.2538 35.4584L39.0613 41.2659C39.3488 41.5534 39.713 41.6876 40.0771 41.6876C40.4413 41.6876 40.8055 41.5534 41.093 41.2659C41.6488 40.7101 41.6488 39.7901 41.093 39.2343Z" fill="white"/>
</svg>
