<svg width="66" height="66" viewBox="0 0 66 66" fill="none" xmlns="http://www.w3.org/2000/svg">
<path opacity="0.4" d="M47.3785 36.2462C45.6958 38.5335 43.474 40.1325 41.0186 41.0247C37.4582 42.2953 33.4494 42.0934 29.9737 40.2415C29.3678 39.9416 28.7808 39.5827 28.2129 39.165C27.6451 38.7472 27.1278 38.2937 26.6611 37.8045C23.8585 35.0377 22.4724 31.2708 22.6255 27.4935C22.7463 24.8838 23.6114 22.2868 25.2941 19.9994C29.7852 13.8947 38.3549 12.5896 44.4597 17.0806C50.5644 21.5717 51.8695 30.1414 47.3785 36.2462Z" fill="white"/>
<path d="M39.9385 53.7958L36.8831 52.4962C36.195 52.2088 35.4126 52.3139 34.857 52.8048L32.599 54.7174C31.3709 55.7589 29.4834 54.9538 29.3784 53.345L28.2134 39.165L14.318 42.2898C12.7508 42.6685 11.4203 41.1062 12.049 39.6238L13.2028 36.8987C13.4902 36.2106 13.3693 35.4166 12.8942 34.8727L10.744 32.3427C9.754 31.1768 10.4306 29.3649 11.9364 29.1355L22.6144 27.5093C22.4612 31.2866 23.8473 35.0535 26.6499 37.8204C27.1166 38.3096 27.6339 38.7631 28.2018 39.1808C28.7697 39.5986 29.3566 39.9574 29.9626 40.2574C33.4382 42.1093 37.4471 42.3111 41.0075 41.0405L42.6337 51.7184C42.8746 53.2085 41.3462 54.3938 39.9385 53.7958Z" fill="white"/>
<path d="M40.7567 24.0319L40.318 26.578C40.2585 26.9232 40.4041 27.4193 40.669 27.6872L42.148 29.2128C43.093 30.1754 42.7652 31.1499 41.4236 31.3542L39.1511 31.7002C38.7678 31.7586 38.3282 32.0917 38.175 32.4652L37.3583 34.3685C36.7181 35.8668 35.6684 35.8725 35.0317 34.3587L34.1389 32.2675C33.9826 31.8851 33.5094 31.5369 33.0978 31.5016L30.8356 31.2718C29.2125 31.0988 28.8939 30.1108 30.1336 29.0535L31.7075 27.7073C31.9911 27.454 32.2056 26.931 32.1472 26.5477L31.8011 24.2753C31.5968 22.9337 32.4178 22.3464 33.6297 22.9462L35.5265 23.904C35.8453 24.0656 36.3622 24.0569 36.6741 23.8973L38.9741 22.7206C40.1743 22.0476 40.9946 22.651 40.7567 24.0319Z" fill="white"/>
</svg>
