<svg width="25" height="26" viewBox="0 0 25 26" fill="none" xmlns="http://www.w3.org/2000/svg">
<path opacity="0.4" d="M16.6251 2.94714H8.20845C4.55254 2.94714 2.37305 5.12663 2.37305 8.78255V17.1891C2.37305 20.8551 4.55254 23.0346 8.20845 23.0346H16.615C20.271 23.0346 22.4505 20.8551 22.4505 17.1992V8.78255C22.4605 5.12663 20.281 2.94714 16.6251 2.94714Z" fill="#8B8B8B"/>
<path d="M12.4165 13.9953C11.854 13.9953 11.4121 13.5433 11.4121 12.9909C11.4121 12.4385 11.8641 11.9866 12.4165 11.9866C12.9689 11.9866 13.4209 12.4385 13.4209 12.9909C13.4209 13.5433 12.9789 13.9953 12.4165 13.9953Z" fill="#8B8B8B"/>
<path d="M16.4341 13.9953C15.8716 13.9953 15.4297 13.5433 15.4297 12.9909C15.4297 12.4385 15.8817 11.9866 16.4341 11.9866C16.9865 11.9866 17.4384 12.4385 17.4384 12.9909C17.4384 13.5433 16.9965 13.9953 16.4341 13.9953Z" fill="#8B8B8B"/>
<path d="M8.39939 13.9953C7.83694 13.9953 7.39502 13.5433 7.39502 12.9909C7.39502 12.4385 7.84699 11.9866 8.39939 11.9866C8.9518 11.9866 9.40376 12.4385 9.40376 12.9909C9.40376 13.5433 8.96184 13.9953 8.39939 13.9953Z" fill="#8B8B8B"/>
</svg>
