<svg width="168" height="26" viewBox="0 0 168 26" fill="none" xmlns="http://www.w3.org/2000/svg">
<path d="M5.318 20H0.674V0.694999H5.318V8.201H13.202V0.694999H17.846V20H13.202V12.089H5.318V20ZM27.2087 20.432C22.5647 20.432 19.3787 17.408 19.3787 13.115C19.3787 8.822 22.5647 5.798 27.2087 5.798C31.8527 5.798 35.0387 8.822 35.0387 13.115C35.0387 17.408 31.8527 20.432 27.2087 20.432ZM27.2087 16.706C29.0717 16.706 30.3407 15.221 30.3407 13.115C30.3407 11.009 29.0717 9.524 27.2087 9.524C25.3457 9.524 24.0767 11.009 24.0767 13.115C24.0767 15.221 25.3457 16.706 27.2087 16.706ZM58.4042 20H53.8412V11.873C53.8412 10.307 53.1392 9.524 52.0052 9.524C50.7632 9.524 49.6292 10.496 49.6292 12.818V20H45.0662V11.873C45.0662 10.307 44.3642 9.524 43.2302 9.524C41.9882 9.524 40.8542 10.496 40.8542 12.818V20H36.2912V6.23H40.8272V8.363C41.6642 6.338 43.3652 5.798 44.7692 5.798C46.7402 5.798 48.1982 6.743 48.8192 8.687C49.7642 6.392 51.7892 5.798 53.4362 5.798C56.5142 5.798 58.4042 7.85 58.4042 11.576V20ZM71.9586 15.464L74.1726 18.191C72.7956 19.595 70.4196 20.432 67.8276 20.432C62.8056 20.432 59.5116 17.489 59.5116 13.142C59.5116 8.768 62.8056 5.798 67.0446 5.798C71.2026 5.798 74.1996 8.714 74.1996 12.953V14.438H64.2636C64.7496 16.139 66.1806 16.976 68.1246 16.976C69.6366 16.976 70.8786 16.463 71.9586 15.464ZM67.0176 9.227C65.6136 9.227 64.5336 10.118 64.1826 11.792H69.7176C69.4746 10.199 68.5296 9.227 67.0176 9.227ZM89.5768 20H84.9328V4.61H79.1278V0.694999H95.3818V4.61H89.5768V20ZM107.491 20H102.955V18.461C102.064 19.703 100.633 20.432 98.8243 20.432C95.6653 20.432 93.6673 18.488 93.6673 14.897V6.23H98.2303V14.438C98.2303 15.95 99.0403 16.706 100.282 16.706C101.497 16.706 102.523 15.977 102.928 14.87V6.23H107.491V20ZM118.625 20H115.061C112.226 20 110.876 18.65 110.876 15.815V9.848H108.743V6.23H110.876V2.828H115.439V6.23H118.49V9.848H115.439V14.924C115.439 15.977 115.79 16.328 116.789 16.328H118.625V20ZM126.805 20.432C122.161 20.432 118.975 17.408 118.975 13.115C118.975 8.822 122.161 5.798 126.805 5.798C131.449 5.798 134.635 8.822 134.635 13.115C134.635 17.408 131.449 20.432 126.805 20.432ZM126.805 16.706C128.668 16.706 129.937 15.221 129.937 13.115C129.937 11.009 128.668 9.524 126.805 9.524C124.942 9.524 123.673 11.009 123.673 13.115C123.673 15.221 124.942 16.706 126.805 16.706ZM145.175 5.987V10.037H144.311C141.719 10.037 140.45 11.225 140.45 14.06V20H135.887V6.23H140.423V8.606C141.314 6.527 143.123 5.987 144.554 5.987H145.175ZM150.682 20H146.119V0.559999H150.682V20ZM162.899 6.23H167.462L161.198 21.053C160.01 23.861 158.174 25.238 155.339 25.238H153.287V21.566H155.015C156.041 21.566 156.797 21.188 157.202 20.162L157.256 20L151.397 6.23H156.068L159.47 15.545L162.899 6.23Z" fill="white"/>
</svg>
