<svg width="25" height="26" viewBox="0 0 25 26" fill="none" xmlns="http://www.w3.org/2000/svg">
<path opacity="0.4" d="M17.0286 2.94714H8.62202C4.96611 2.94714 2.78662 5.12663 2.78662 8.78255V17.1891C2.78662 20.8451 4.96611 23.0245 8.62202 23.0245H17.0286C20.6845 23.0245 22.864 20.8451 22.864 17.1891V8.78255C22.864 5.12663 20.6845 2.94714 17.0286 2.94714Z" fill="#8B8B8B"/>
<path d="M10.9218 12.1372H8.2602C7.62745 12.1372 7.11523 12.6494 7.11523 13.2821V18.4245H10.9218V12.1372Z" fill="#8B8B8B"/>
<path opacity="0.4" d="M13.5833 7.56726H12.0566C11.4238 7.56726 10.9116 8.07951 10.9116 8.71226V18.4145H14.7182V8.71226C14.7182 8.07951 14.216 7.56726 13.5833 7.56726Z" fill="#8B8B8B"/>
<path d="M17.3901 13.8446H14.7285V18.4145H18.5351V14.9896C18.5251 14.3568 18.0128 13.8446 17.3901 13.8446Z" fill="#8B8B8B"/>
</svg>
