<svg width="12" height="12" viewBox="0 0 12 12" fill="none" xmlns="http://www.w3.org/2000/svg">
<path d="M5.93711 1.58459C3.538 1.58459 1.58301 3.53959 1.58301 5.93869C1.58301 8.3378 3.538 10.2928 5.93711 10.2928C8.33622 10.2928 10.2912 8.3378 10.2912 5.93869C10.2912 3.53959 8.33622 1.58459 5.93711 1.58459ZM8.01837 4.93725L5.54959 7.40603C5.48863 7.46698 5.40591 7.50182 5.31883 7.50182C5.23174 7.50182 5.14902 7.46698 5.08806 7.40603L3.85585 6.17382C3.72958 6.04755 3.72958 5.83855 3.85585 5.71228C3.98212 5.58601 4.19111 5.58601 4.31738 5.71228L5.31883 6.71372L7.55683 4.47572C7.6831 4.34945 7.8921 4.34945 8.01837 4.47572C8.14464 4.60199 8.14464 4.80663 8.01837 4.93725Z" fill="#13EB00"/>
</svg>
